# xmcd
#
# Track frame offsets:
#	150
#	14886
#	29337
#	44955
#	59858
#	74943
#	88855
#	103466
#	118475
#	132076
#	146018
#	159376
#	173067
#	184728
#	200598
#	215862
#
# Disc length: 3063 seconds
#
# Revision: 0
# Processed by: cddbd v1.5.2PL0 Copyright (c) Steve Scherf et al.
# Submitted via: EasyCDDAExtractor 16.0.6.1
#
DISCID=180bf510
DTITLE=Καζαντζίδης Στέλιος - Τραγούδια 45 στροφές-Καζαντζίδης Στέλιος 2
DYEAR=1997
DGENRE=Λαϊκή
TTITLE0=Καζαντζίδης Στέλιος - Γελάτε μα δεν ξέρετε [Σ. Καζαντζίδης-Στ. Βαρτάνη
TTITLE0=ς]
TTITLE1=Καζαντζίδης Στέλιος - Καλός θα μείνω στη ζωή [Σ. Καζαντζίδης-Στ. Βαρτά
TTITLE1=νης]
TTITLE2=Καζαντζίδης Στέλιος-Μαρινέλλα - Μέσ' στης αγάπης μας το τζάκι [Θ. Δερβ
TTITLE2=ενιώτης]
TTITLE3=Καζαντζίδης Στέλιος - Η καρδιά της μάνας [Θ. Κολοκοτρώνης]
TTITLE4=Καζαντζίδης Στέλιος - Έχεις άντρα χρυσοχέρη [Σ. Καζαντζίδης-Στ. Βαρτάν
TTITLE4=ης]
TTITLE5=Καζαντζίδης Στέλιος - Η ζωή μου λιγοστεύει [Σ. Καζαντζίδης]
TTITLE6=Καζαντζίδης Στέλιος-Μαρινέλλα - Σβύσε το φως [Θ. Δερβενιώτης-Κ. Βίρβος
TTITLE6=]
TTITLE7=Καζαντζίδης Στέλιος - Αφήστε με να πω και 'γω [Χρ. Κολοκοτρώνης]
TTITLE8=Καζαντζίδης Στέλιος - Ήπια της πίκρας τα ποτήρια [Σ. Καζαντζίδης-Ε. Ατ
TTITLE8=ραΐδης]
TTITLE9=Καζαντζίδης Στέλιος - Έχω πικρό παράπονο [Θ. Δερβενιώτης]
TTITLE10=Καζαντζίδης Στέλιος - Πώς πονάω το χωριό μου [Σ. Καζαντζίδης-Στ. Βαρτ
TTITLE10=άνης]
TTITLE11=Καζαντζίδης Στέλιος - Το λάθος σου ποτέ δεν συγχωρώ [Χρ. Κολοκοτρώνης
TTITLE11=Σ. Καζαντζίδης]
TTITLE12=Καζαντζίδης Στέλιος - Για τη γυναίκα που αγάπησα [Σ. Καζαντζίδης-Χρ. 
TTITLE12=Κολοκοτρώνης]
TTITLE13=Καζαντζίδης Στέλιος-Μαρινέλλα - Αν μού φύγεις τώρα [Σ. Καζαντζίδης-Στ
TTITLE13=Βαρτάνης]
TTITLE14=Καζαντζίδης Στέλιος - Η τύχη σου αγνοείται [Δ. Γκούτης-Χαρ. Λειβάδης]
TTITLE15=Καζαντζίδης Στέλιος - Ας όψονται οι αίτιοι [Σ. Καζαντζίδης-Γ. Ατραΐδη
TTITLE15=ς]
EXTD=
EXTT0=
EXTT1=
EXTT2=
EXTT3=
EXTT4=
EXTT5=
EXTT6=
EXTT7=
EXTT8=
EXTT9=
EXTT10=
EXTT11=
EXTT12=
EXTT13=
EXTT14=
EXTT15=
PLAYORDER=
